<?xml version="1.0" standalone="no"?>
<!DOCTYPE svg PUBLIC "-//W3C//DTD SVG 20010904//EN"
 "http://www.w3.org/TR/2001/REC-SVG-20010904/DTD/svg10.dtd">
<svg version="1.0" xmlns="http://www.w3.org/2000/svg"
 width="400.000000pt" height="400.000000pt" viewBox="0 0 400.000000 400.000000"
 preserveAspectRatio="xMidYMid meet">
<metadata>
Created by potrace 1.11, written by Peter Selinger 2001-2013
</metadata>
<g transform="translate(0.000000,400.000000) scale(0.100000,-0.100000)"
fill="#000000" stroke="none">
<path d="M1795 3829 c-698 -73 -1306 -563 -1531 -1235 -166 -495 -105 -1060
161 -1499 307 -505 798 -821 1377 -884 837 -92 1644 427 1913 1231 220 657 51
1371 -441 1862 -392 393 -927 583 -1479 525z m-89 -694 c49 -9 106 -20 127
-26 l37 -10 0 -140 c0 -129 -1 -140 -17 -135 -87 27 -173 39 -278 40 -145 1
-194 -14 -254 -79 -58 -63 -71 -117 -71 -297 l0 -148 285 0 285 0 0 -135 0
-135 -285 0 -285 0 0 -485 0 -485 -175 0 -175 0 0 485 0 485 -215 0 -215 0 0
135 0 135 215 0 215 0 0 168 c0 242 30 349 126 461 128 148 400 214 680 166z
m1394 -595 c36 -6 82 -15 103 -21 l37 -10 0 -110 c0 -94 -2 -110 -15 -105 -45
17 -246 48 -345 53 -242 11 -372 -52 -372 -182 0 -108 70 -156 363 -249 177
-56 245 -85 321 -138 102 -72 142 -154 142 -293 0 -92 -26 -163 -85 -230 -74
-84 -218 -151 -379 -176 -125 -19 -519 4 -622 37 -16 5 -18 20 -18 121 0 100
2 114 16 109 31 -12 212 -46 299 -56 256 -29 445 5 506 91 18 26 24 47 24 90
0 108 -53 146 -332 238 -225 74 -301 111 -379 183 -85 80 -109 135 -109 253 0
76 4 98 26 145 62 132 191 221 374 256 80 15 338 12 445 -6z"/>
</g>
</svg>
